<svg width="48" height="48" viewBox="0 0 48 48" fill="none" xmlns="http://www.w3.org/2000/svg">
<path d="M29.7188 13.7955H39.0703V16.0643H29.7188V13.7955ZM20.3484 22.7721C22.4156 21.783 23.4984 20.2783 23.4984 17.9533C23.4984 13.3549 20.0766 12.2393 16.125 12.2393H5.25V35.3205H16.4297C20.6203 35.3205 24.5531 33.3049 24.5531 28.6174C24.5531 25.7205 23.1844 23.5783 20.3484 22.7721V22.7721ZM10.3219 16.1768H15.0797C16.9125 16.1768 18.5578 16.6877 18.5578 18.8158C18.5578 20.7752 17.2781 21.5627 15.4641 21.5627H10.3219V16.1768ZM15.7359 31.4018H10.3172V25.0455H15.8438C18.075 25.0455 19.4859 25.9783 19.4859 28.3408C19.4859 30.6658 17.8031 31.4018 15.7359 31.4018V31.4018ZM42.7266 27.2064C42.7266 22.2611 39.8344 18.1408 34.6031 18.1408C29.5172 18.1408 26.0578 21.9705 26.0578 26.9908C26.0578 32.1939 29.3344 35.7658 34.6031 35.7658C38.5922 35.7658 41.175 33.9705 42.4172 30.1408H38.3719C37.9312 31.5705 36.1406 32.3205 34.7484 32.3205C32.0578 32.3205 30.6516 30.7455 30.6516 28.0689H42.6937C42.7078 27.7924 42.7266 27.5018 42.7266 27.2064V27.2064ZM30.6516 25.1721C30.7969 22.9736 32.2641 21.6002 34.4578 21.6002C36.7641 21.6002 37.9172 22.9549 38.1188 25.1721H30.6516Z" fill="black"/>
</svg>
