<svg width="48" height="48" viewBox="0 0 48 48" fill="none" xmlns="http://www.w3.org/2000/svg">
<path d="M23.9812 3.57617C12.3891 3.57149 3 12.9559 3 24.5387C3 33.698 8.87344 41.484 17.0531 44.3434C18.1547 44.6199 17.9859 43.8371 17.9859 43.3027V39.6699C11.625 40.4152 11.3672 36.2059 10.9406 35.5027C10.0781 34.0309 8.03906 33.6559 8.64844 32.9527C10.0969 32.2074 11.5734 33.1402 13.2844 35.6668C14.5219 37.4996 16.9359 37.1902 18.1594 36.8855C18.4266 35.784 18.9984 34.7996 19.7859 34.0355C13.1953 32.8543 10.4484 28.8324 10.4484 24.0512C10.4484 21.7309 11.2125 19.598 12.7125 17.8777C11.7562 15.0418 12.8016 12.6137 12.9422 12.2527C15.6656 12.009 18.4969 14.2027 18.7172 14.3762C20.2641 13.959 22.0312 13.7387 24.0094 13.7387C25.9969 13.7387 27.7687 13.9684 29.3297 14.3902C29.8594 13.9871 32.4844 12.1027 35.0156 12.3324C35.1516 12.6934 36.1734 15.0652 35.2734 17.8637C36.7922 19.5887 37.5656 21.7402 37.5656 24.0652C37.5656 28.8559 34.8 32.8824 28.1906 34.0449C28.7567 34.6017 29.2062 35.2656 29.5129 35.998C29.8195 36.7304 29.9771 37.5165 29.9766 38.3105V43.584C30.0141 44.0059 29.9766 44.423 30.6797 44.423C38.9812 41.6246 44.9578 33.7824 44.9578 24.5434C44.9578 12.9559 35.5641 3.57617 23.9812 3.57617V3.57617Z" fill="black"/>
</svg>
