<svg width="48" height="48" viewBox="0 0 48 48" fill="none" xmlns="http://www.w3.org/2000/svg">
<path d="M39.1266 13.1156L42 10.3547V9.75H32.0484L24.9563 27.4875L16.8891 9.75H6.45469V10.3547L9.81094 14.4141C10.1391 14.7141 10.3078 15.1547 10.2656 15.5953V31.5469C10.3688 32.1234 10.1859 32.7094 9.78281 33.1266L6 37.7344V38.3297H16.7156V37.725L12.9375 33.1312C12.7351 32.9257 12.5828 32.6763 12.4926 32.4023C12.4023 32.1283 12.3765 31.8372 12.4172 31.5516V17.7516L21.825 38.3391H22.9172L31.0078 17.7516V34.1531C31.0078 34.5844 31.0078 34.6734 30.7266 34.9594L27.8156 37.7859V38.3906H41.9344V37.7859L39.1266 35.025C38.8828 34.8375 38.7563 34.5234 38.8078 34.2188V13.9219C38.7835 13.7712 38.8003 13.6169 38.8564 13.475C38.9125 13.3331 39.0058 13.2089 39.1266 13.1156V13.1156Z" fill="black"/>
</svg>
