<svg width="48" height="48" viewBox="0 0 48 48" fill="none" xmlns="http://www.w3.org/2000/svg">
<path d="M39.4 23.0404H39.208C38.344 18.6244 34.408 15.3604 29.8 15.3604C26.824 15.3604 24.136 16.7044 22.408 18.9124C22.216 19.2004 22.12 19.4884 22.12 20.0644L21.736 28.8003L22.12 34.0803C22.12 34.3683 22.408 34.5603 22.6 34.5603H39.4C42.568 34.5603 45.16 31.9683 45.16 28.8003C45.16 25.6324 42.568 23.0404 39.4 23.0404Z" fill="black"/>
<path d="M19.1439 19.2002C18.8559 19.2002 18.6639 19.3922 18.6639 19.6802L17.8959 28.3202V29.2802L18.6639 34.0802C18.6639 34.3682 18.9519 34.5602 19.2399 34.5602H19.4319C19.7199 34.5602 19.9119 34.3682 20.0079 34.0802L20.7759 29.2802C20.7759 28.9922 20.8719 28.6082 20.7759 28.3202L20.0079 19.6802C20.0079 19.3922 19.7199 19.2002 19.5279 19.2002H19.1439V19.2002Z" fill="black"/>
<path d="M15.304 20.1602C15.016 20.1602 14.824 20.3522 14.824 20.6402L14.056 28.3202V29.2802L14.824 34.0802C14.824 34.3682 15.112 34.5602 15.4 34.5602H15.592C15.88 34.5602 16.072 34.3682 16.168 34.0802L16.936 29.2802C16.936 28.9922 17.032 28.6082 16.936 28.3202L16.168 20.6402C16.168 20.3522 15.88 20.1602 15.688 20.1602H15.304V20.1602Z" fill="black"/>
<path d="M11.5601 23.04C11.2721 23.04 11.0801 23.232 10.9841 23.52L10.2161 28.32V29.28L10.9841 34.08C10.9841 34.368 11.2721 34.56 11.5601 34.56C11.8481 34.56 12.0401 34.368 12.1361 34.08L12.9041 29.28V28.32L12.1361 23.52C12.0401 23.232 11.8481 23.04 11.5601 23.04Z" fill="black"/>
<path d="M7.72003 22.0801C7.43203 22.0801 7.24003 22.2721 7.14403 22.5601L6.28003 28.3201V29.2801L7.04803 34.0801C7.24003 34.3681 7.43203 34.5601 7.72003 34.5601C8.00803 34.5601 8.20003 34.3681 8.29603 34.0801L9.06403 29.2801C9.06403 28.9921 9.16003 28.6081 9.06403 28.3201L8.20003 22.5601C8.20003 22.2721 8.00803 22.0801 7.72003 22.0801Z" fill="black"/>
<path d="M4.16809 24.96C3.88009 24.96 3.68809 25.152 3.59209 25.44L3.01609 28.32C2.92009 28.608 2.92009 28.992 3.01609 29.28L3.59209 33.12C3.68809 33.408 3.88009 33.6 4.16809 33.6C4.45609 33.6 4.64809 33.408 4.74409 33.12L5.32009 29.28V28.32L4.74409 25.44C4.64809 25.152 4.45609 24.96 4.16809 24.96Z" fill="black"/>
</svg>
