<!-- Generator: Adobe Illustrator 24.2.1, SVG Export Plug-In  -->
<svg version="1.1" xmlns="http://www.w3.org/2000/svg" xmlns:xlink="http://www.w3.org/1999/xlink" x="0px" y="0px" width="367.1px"
	 height="504.6px" viewBox="0 0 367.1 504.6" style="overflow:visible;enable-background:new 0 0 367.1 504.6;"
	 xml:space="preserve">
<style type="text/css">
	.st0{opacity:0.5;}
	.st1{fill:#FFFFFF;}
</style>
<defs>
</defs>
<g class="st0">
	<path id="banner-rocket" class="st1" d="M61.6,504.6c-3.1,0-5.6-2.5-5.6-5.6c0-3.1,2.5-5.6,5.6-5.6c3.1,0,5.6,2.5,5.6,5.6
		C67.2,502.1,64.7,504.6,61.6,504.6z M61.6,494.3c-2.6,0-4.6,2.1-4.6,4.6s2.1,4.6,4.6,4.6c2.6,0,4.6-2.1,4.6-4.6
		S64.1,494.3,61.6,494.3z M333.7,499.5c-3.1,0-5.6-2.5-5.6-5.6c0-3.1,2.5-5.6,5.6-5.6c3.1,0,5.6,2.5,5.6,5.6
		C339.3,497,336.8,499.5,333.7,499.5z M333.7,489.2c-2.6,0-4.6,2.1-4.6,4.6s2.1,4.6,4.6,4.6s4.6-2.1,4.6-4.6
		S336.2,489.2,333.7,489.2z M31,494.3c-3.1,0-5.6-2.5-5.6-5.6s2.5-5.6,5.6-5.6s5.6,2.5,5.6,5.6S34.1,494.3,31,494.3z M31,484.1
		c-2.6,0-4.6,2.1-4.6,4.6s2.1,4.6,4.6,4.6s4.6-2.1,4.6-4.6S33.5,484.1,31,484.1z M181.6,489.5l-118-0.3c-2.8,0-5.2-1.7-6-4.4
		c-0.8-2.7,0.1-5.4,2.5-7c7.5-5.1,14.9-10.5,21.9-15.9c13.5-10.4,24.8-24.2,32.6-39.9c20.4-41,37.9-64.7,67-64.7c0,0,0,0,0,0
		c30,0.8,45.5,21.5,67.1,64.7c7.8,15.6,19.1,29.4,32.6,39.9c7,5.4,14.4,10.8,21.9,15.9c2.3,1.6,3.3,4.3,2.5,7
		c-0.8,2.7-3.2,4.4-6,4.4L181.6,489.5z M181.5,358.3c-28.6,0-45.9,23.5-66.1,64.1c-7.9,15.8-19.2,29.7-32.9,40.2
		c-7,5.4-14.4,10.8-21.9,15.9c-2,1.3-2.8,3.7-2.1,5.9c0.7,2.3,2.7,3.7,5,3.7l118,0.3l118-0.3c2.4,0,4.3-1.5,5-3.7
		c0.7-2.3-0.1-4.6-2.1-5.9c-7.5-5.1-14.9-10.5-21.9-15.9c-13.6-10.5-25-24.4-32.9-40.2c-10.2-20.5-19.1-36.3-29.2-47.1
		C207.9,364.1,196.2,358.7,181.5,358.3z M262.8,474.3c-3.1,0-5.6-2.5-5.6-5.6s2.5-5.6,5.6-5.6c3.1,0,5.6,2.5,5.6,5.6
		S265.9,474.3,262.8,474.3z M262.8,464.1c-2.6,0-4.6,2.1-4.6,4.6s2.1,4.6,4.6,4.6s4.6-2.1,4.6-4.6S265.4,464.1,262.8,464.1z
		 M314.9,471.2c-3.1,0-5.6-2.5-5.6-5.6s2.5-5.6,5.6-5.6s5.6,2.5,5.6,5.6S318,471.2,314.9,471.2z M314.9,461c-2.6,0-4.6,2.1-4.6,4.6
		s2.1,4.6,4.6,4.6s4.6-2.1,4.6-4.6S317.5,461,314.9,461z M357.4,469.2c-3.1,0-5.6-2.5-5.6-5.6c0-3.1,2.5-5.6,5.6-5.6
		s5.6,2.5,5.6,5.6C363,466.7,360.5,469.2,357.4,469.2z M357.4,458.9c-2.6,0-4.6,2.1-4.6,4.6s2.1,4.6,4.6,4.6s4.6-2.1,4.6-4.6
		S359.9,458.9,357.4,458.9z M64.2,456.2c-3.1,0-5.6-2.5-5.6-5.6c0-3.1,2.5-5.6,5.6-5.6c3.1,0,5.6,2.5,5.6,5.6
		C69.8,453.7,67.3,456.2,64.2,456.2z M64.2,446c-2.6,0-4.6,2.1-4.6,4.6s2.1,4.6,4.6,4.6c2.6,0,4.6-2.1,4.6-4.6S66.7,446,64.2,446z
		 M114.3,451.1c-3.1,0-5.6-2.5-5.6-5.6s2.5-5.6,5.6-5.6s5.6,2.5,5.6,5.6S117.4,451.1,114.3,451.1z M114.3,440.8
		c-2.6,0-4.6,2.1-4.6,4.6s2.1,4.6,4.6,4.6s4.6-2.1,4.6-4.6S116.8,440.8,114.3,440.8z M321.5,444.3c-19.5,0-42.2-10.4-51.1-32.1
		c-12.4-30.1-25.8-51.7-41.1-65.9c-13.5-12.5-28.5-19.3-45.8-20.6c-16.9-1.3-33.5,10.8-44.5,21.1c-12.5,11.8-20.8,24-21.1,24.5
		c-11.6,17.3-13.4,21.8-18.9,35.1c-0.7,1.7-1.5,3.6-2.3,5.7c-10.1,24.6-37.8,34.6-58.6,31.6c-20.2-3-33.6-17.4-35.6-38.5
		c-2.8-28.5-3.2-62.2-1.2-100.1c4.4-82.5,26.1-153,64.5-209.6c31.9-47,68.5-74.3,93.7-89c7.3-4.3,15.6-6.5,24.1-6.5
		s16.8,2.2,24.1,6.5c25.1,14.6,61.8,41.9,93.7,89c38.4,56.6,60.1,127.1,64.5,209.6c2,37.9,1.6,71.6-1.2,100.1
		c-2.1,21.1-15.4,35.5-35.6,38.5C326.6,444.1,324.1,444.3,321.5,444.3z M183.6,1c-8.3,0-16.4,2.2-23.6,6.4
		c-25,14.6-61.5,41.8-93.3,88.7c-38.3,56.5-60,126.8-64.4,209.1c-2,37.9-1.6,71.5,1.2,100c2.1,21,14.7,34.7,34.8,37.6
		c20.5,3,47.6-6.8,57.6-31c0.9-2.1,1.6-4,2.3-5.7c5.4-13.4,7.3-17.9,18.9-35.3c1.3-2,32.9-48.5,66.5-46c17.6,1.3,32.7,8.1,46.4,20.8
		c15.4,14.3,28.9,35.9,41.3,66.2c9.9,24.1,37.1,34,57.6,31c20.1-2.9,32.7-16.7,34.8-37.6c2.8-28.5,3.2-62.1,1.2-100
		c-4.4-82.3-26.1-152.7-64.4-209.1c-31.8-46.9-68.3-74.1-93.3-88.7C200,3.2,191.8,1,183.6,1z M150,410.9c-3.1,0-5.6-2.5-5.6-5.6
		c0-3.1,2.5-5.6,5.6-5.6s5.6,2.5,5.6,5.6C155.6,408.4,153.1,410.9,150,410.9z M150,400.6c-2.6,0-4.6,2.1-4.6,4.6s2.1,4.6,4.6,4.6
		s4.6-2.1,4.6-4.6S152.5,400.6,150,400.6z M211.4,387.3c-3.1,0-5.6-2.5-5.6-5.6c0-3.1,2.5-5.6,5.6-5.6s5.6,2.5,5.6,5.6
		C217.1,384.8,214.6,387.3,211.4,387.3z M211.4,377c-2.6,0-4.6,2.1-4.6,4.6s2.1,4.6,4.6,4.6s4.6-2.1,4.6-4.6S214,377,211.4,377z
		 M183.6,234.4c-28.4,0-51.4-23.1-51.4-51.4c0-28.4,23.1-51.4,51.4-51.4c28.4,0,51.4,23.1,51.4,51.4
		C235,211.3,211.9,234.4,183.6,234.4z M183.6,132.6c-27.8,0-50.4,22.6-50.4,50.4s22.6,50.4,50.4,50.4S234,210.8,234,183
		S211.4,132.6,183.6,132.6z"/>
</g>
</svg>
