<svg xmlns="http://www.w3.org/2000/svg" viewBox="0 0 263.54 424.83"><defs><style>.cls-1,.cls-2{fill:none;stroke:#fff;stroke-miterlimit:10;}.cls-1{stroke-width:0.25px;}</style></defs>
<g id="Layer_2" data-name="Layer 2"><g id="Layer_1-2" data-name="Layer 1"><g id="banner-img"><path id="thin-banner-line" class="cls-1" d="M146.66,315.35c70.63,27.74,87,45.44,87.24,70.07.3,24.93-45.46,38.83-105.66,38.91-62.68.08-99.44-11.6-100.61-44.14-.91-25.46,16.77-39.13,82.21-64.84M59.35,195.5S66,303.37,128.41,303.37c71.9,0,71.51-115.55,71.51-115.55m-91.2,111.47s-1.54,17.91,4.61,28.22c8.8,14.73,25.1,9.95,30.35-2.15,4.3-9.87,5.1-25.56,5.1-25.56M60.4,205.23s-9.16-7.7-16.51,2.2c-5.34,7.18-4.06,23.29,2.8,30.35,5.61,5.77,14.75,4.74,18.87-4.05M53,214.42c-2.14,3.24-1.4,10.33,1.12,13.48M194.26,234c4.31,8.7,13.48,9.52,19,3.63,6.7-7.21,7.62-23.34,2.13-30.41-7.57-9.72-16.56-1.82-16.56-1.82m7.39,22.43c3.06-2.72,3.41-10.19,1.31-13.46M98.64,203.7a8.95,8.95,0,1,0,8.94,9A8.94,8.94,0,0,0,98.64,203.7Zm61.41,0a8.95,8.95,0,1,0,8.94,9A8.95,8.95,0,0,0,160.05,203.7ZM104,197.36c2.1,1.5,5.14-.79,2.42-4.22s-7-3.71-10.4-3.46c-3.66.27-7.17,2.73-9.31,5.56s.33,3.64,1.33,3.1,5.19-2.73,7.14-3.14C98.22,194.54,102.17,196.1,104,197.36Zm61.6-3.09c2,.38,4.84,2.11,5.85,2.63s2.85-.43.66-3.22a12,12,0,0,0-8.77-5c-3.41-.18-7.21.94-9.31,3.18-3,3.21-.81,5.6,1.45,4.35C157.9,194.85,162.45,193.67,165.55,194.27ZM159.37,57.64a33.47,33.47,0,0,1-10.31,6.85A37.78,37.78,0,0,1,163.6,87.21m-1.39,39.66a29.11,29.11,0,0,1-5.43-9.32c-.78,1-1.61,2-2.48,3M22.41,171.93c0,.37,0,.74,0,1.12a25.25,25.25,0,1,0,41.18-19.58m.27-.67a25.23,25.23,0,0,0,44.6-11.88m-91.93-28a32.75,32.75,0,0,0,5.91,59.05M32.88,65.17A25.25,25.25,0,0,0,16.5,112.88m90.13,14a25.19,25.19,0,0,1,2.11,10.1,25.55,25.55,0,0,1-.31,3.94A19.5,19.5,0,0,0,135.52,148m-27.09-7.11a25.55,25.55,0,0,0,.31-3.94m138.33-28A30.74,30.74,0,0,0,217.7,59.17M169.39,35.63c0-.61.05-1.22.05-1.84a33.29,33.29,0,1,0-66.58,0,32.6,32.6,0,0,0,.18,3.44A37.26,37.26,0,0,1,105.59,47M88.85,94.84a37.63,37.63,0,0,1,2.47-13.43M135.52,148a16.65,16.65,0,0,0,24.34-6.74m44,38.85a19.6,19.6,0,0,1-2.44-.17,14.38,14.38,0,0,0-1.46,6.31A14.56,14.56,0,1,0,223,174.49m-30.21-88c-.09.95-.14,1.9-.14,2.87a30.65,30.65,0,0,0,10.33,23m14.72-53.2c0-.51,0-1,0-1.54a29.18,29.18,0,0,0-48.35-22M103,37.23A37.76,37.76,0,0,0,32.88,65.17m60.31,12.1a37.93,37.93,0,0,1,10.23-12.21M91.32,81.41a38.52,38.52,0,0,1,1.87-4.14M223,174.49A35.87,35.87,0,0,0,247.07,109m-35.37,8.81a29.29,29.29,0,0,1-13.54,15.65M185,155.58A19.51,19.51,0,0,0,201.4,180m0,0a19.6,19.6,0,0,0,2.44.17m-44-38.85A19.52,19.52,0,0,0,185,155.58a19.54,19.54,0,0,1,6.9-10.43m0,0a19.54,19.54,0,0,0-6.9,10.43M117,273.81c7.54,4.39,17.73,5.24,25,2.43,6.55-2.55,11.75-5.38,10.82-9.36-.8-3.41-7.6-1.65-11.66.39-5.32,2.66-11.86,2.89-16,.48-3.78-2.2-10.75-4.54-13.36-2.74S111.27,270.48,117,273.81Zm8.13-34.26c-5.61,9.25-.86,11.53.88,12,2,.51,3-1.06,6.46-1,2.65,0,4.77,2.4,6.87-.49,1.6-2.21-1.17-7.41-2.86-10.72-1-2-1-4.44-1.28-7.3m34,23.55c1.84-2.73,1.7-4.83.59-7.88M165.2,210.4a4.52,4.52,0,0,0-3-3.45m-58.55,3.94a4.49,4.49,0,0,0-3-3.45"/><path id="bold-banner-line" class="cls-2" d="M146.66,315.35c70.63,27.74,87,45.44,87.24,70.07.3,24.93-45.46,38.83-105.66,38.91-62.68.08-99.44-11.6-100.61-44.14-.91-25.46,16.77-39.13,82.21-64.84M59.35,195.5S66,303.37,128.41,303.37c71.9,0,71.51-115.55,71.51-115.55m-91.2,111.47s-1.54,17.91,4.61,28.22c8.8,14.73,25.1,9.95,30.35-2.15,4.3-9.87,5.1-25.56,5.1-25.56M60.4,205.23s-9.16-7.7-16.51,2.2c-5.34,7.18-4.06,23.29,2.8,30.35,5.61,5.77,14.75,4.74,18.87-4.05M53,214.42c-2.14,3.24-1.4,10.33,1.12,13.48M194.26,234c4.31,8.7,13.48,9.52,19,3.63,6.7-7.21,7.62-23.34,2.13-30.41-7.57-9.72-16.56-1.82-16.56-1.82m7.39,22.43c3.06-2.72,3.41-10.19,1.31-13.46M98.64,203.7a8.95,8.95,0,1,0,8.94,9A8.94,8.94,0,0,0,98.64,203.7Zm61.41,0a8.95,8.95,0,1,0,8.94,9A8.95,8.95,0,0,0,160.05,203.7ZM104,197.36c2.1,1.5,5.14-.79,2.42-4.22s-7-3.71-10.4-3.46c-3.66.27-7.17,2.73-9.31,5.56s.33,3.64,1.33,3.1,5.19-2.73,7.14-3.14C98.22,194.54,102.17,196.1,104,197.36Zm61.6-3.09c2,.38,4.84,2.11,5.85,2.63s2.85-.43.66-3.22a12,12,0,0,0-8.77-5c-3.41-.18-7.21.94-9.31,3.18-3,3.21-.81,5.6,1.45,4.35C157.9,194.85,162.45,193.67,165.55,194.27ZM159.37,57.64a33.47,33.47,0,0,1-10.31,6.85A37.78,37.78,0,0,1,163.6,87.21m-1.39,39.66a29.11,29.11,0,0,1-5.43-9.32c-.78,1-1.61,2-2.48,3M22.41,171.93c0,.37,0,.74,0,1.12a25.25,25.25,0,1,0,41.18-19.58m.27-.67a25.23,25.23,0,0,0,44.6-11.88m-91.93-28a32.75,32.75,0,0,0,5.91,59.05M32.88,65.17A25.25,25.25,0,0,0,16.5,112.88m90.13,14a25.19,25.19,0,0,1,2.11,10.1,25.55,25.55,0,0,1-.31,3.94A19.5,19.5,0,0,0,135.52,148m-27.09-7.11a25.55,25.55,0,0,0,.31-3.94m138.33-28A30.74,30.74,0,0,0,217.7,59.17M169.39,35.63c0-.61.05-1.22.05-1.84a33.29,33.29,0,1,0-66.58,0,32.6,32.6,0,0,0,.18,3.44A37.26,37.26,0,0,1,105.59,47M88.85,94.84a37.63,37.63,0,0,1,2.47-13.43M135.52,148a16.65,16.65,0,0,0,24.34-6.74m44,38.85a19.6,19.6,0,0,1-2.44-.17,14.38,14.38,0,0,0-1.46,6.31A14.56,14.56,0,1,0,223,174.49m-30.21-88c-.09.95-.14,1.9-.14,2.87a30.65,30.65,0,0,0,10.33,23m14.72-53.2c0-.51,0-1,0-1.54a29.18,29.18,0,0,0-48.35-22M103,37.23A37.76,37.76,0,0,0,32.88,65.17m60.31,12.1a37.93,37.93,0,0,1,10.23-12.21M91.32,81.41a38.52,38.52,0,0,1,1.87-4.14M223,174.49A35.87,35.87,0,0,0,247.07,109m-35.37,8.81a29.29,29.29,0,0,1-13.54,15.65M185,155.58A19.51,19.51,0,0,0,201.4,180m0,0a19.6,19.6,0,0,0,2.44.17m-44-38.85A19.52,19.52,0,0,0,185,155.58a19.54,19.54,0,0,1,6.9-10.43m0,0a19.54,19.54,0,0,0-6.9,10.43M117,273.81c7.54,4.39,17.73,5.24,25,2.43,6.55-2.55,11.75-5.38,10.82-9.36-.8-3.41-7.6-1.65-11.66.39-5.32,2.66-11.86,2.89-16,.48-3.78-2.2-10.75-4.54-13.36-2.74S111.27,270.48,117,273.81Zm8.13-34.26c-5.61,9.25-.86,11.53.88,12,2,.51,3-1.06,6.46-1,2.65,0,4.77,2.4,6.87-.49,1.6-2.21-1.17-7.41-2.86-10.72-1-2-1-4.44-1.28-7.3m34,23.55c1.84-2.73,1.7-4.83.59-7.88M165.2,210.4a4.52,4.52,0,0,0-3-3.45m-58.55,3.94a4.49,4.49,0,0,0-3-3.45"/></g></g></g></svg>
