<!-- Generator: Adobe Illustrator 24.2.1, SVG Export Plug-In  -->
<svg class="w-75" version="1.1" xmlns="http://www.w3.org/2000/svg" xmlns:xlink="http://www.w3.org/1999/xlink" x="0px" y="0px" width="367.1px"
   height="504.6px" viewBox="0 0 367.1 504.6" style="overflow:visible;enable-background:new 0 0 367.1 504.6;"
   xml:space="preserve">
<style type="text/css">
  .st0{stroke-width:4;opacity:0.5;fill:none;stroke:#ffffff;stroke-miterlimit:10;}
  .st1{stroke-width:1;opacity:0.5;fill:none;stroke:#ffffff;stroke-miterlimit:10;}
  #banner-rocket{
    animation-name: stoke-fill;
    animation-duration: 3s;
    animation-timing-function: ease-in-out;
    /* animation-iteration-count: infinite; */
  }

</style>
<defs>
</defs>
<path class="st1" d="M299.6,488.7l-118,0.3l-118-0.3c-5.7,0-7.9-7.4-3.2-10.5c8.4-5.7,15.7-11.1,21.9-15.9
  c13.8-10.7,24.9-24.4,32.7-40c20.4-41,38-64.4,66.6-64.4l0,0c31,0.8,46.2,23.4,66.6,64.4c7.8,15.6,18.9,29.4,32.7,40
  c6.2,4.8,13.5,10.2,21.9,15.9C307.5,481.3,305.3,488.7,299.6,488.7z M365.3,305.1C355.2,115.9,256.3,35.4,207.4,6.9
  c-7.4-4.3-15.6-6.4-23.8-6.4c-8.2,0-16.5,2.1-23.8,6.4C110.9,35.4,11.9,115.9,1.8,305.1c-2.2,40.2-1.5,73.1,1.2,100
  c5.2,53,76.5,47.6,93.3,6.8c7.4-17.9,8.1-21.3,21.2-40.9c1.4-2.1,33.1-48.3,66.1-45.8c32.4,2.4,61.5,23.8,87.3,86.7
  c16.8,40.8,88.1,46.2,93.3-6.8C366.8,378.2,367.5,345.3,365.3,305.1z M183.6,233.9c-28.1,0-50.9-22.8-50.9-50.9s22.8-50.9,50.9-50.9
  c28.1,0,50.9,22.8,50.9,50.9S211.7,233.9,183.6,233.9z M31,483.6c-2.8,0-5.1,2.3-5.1,5.1s2.3,5.1,5.1,5.1c2.8,0,5.1-2.3,5.1-5.1
  S33.8,483.6,31,483.6z M61.6,493.8c-2.8,0-5.1,2.3-5.1,5.1s2.3,5.1,5.1,5.1c2.8,0,5.1-2.3,5.1-5.1S64.4,493.8,61.6,493.8z
   M64.2,445.5c-2.8,0-5.1,2.3-5.1,5.1s2.3,5.1,5.1,5.1c2.8,0,5.1-2.3,5.1-5.1S67,445.5,64.2,445.5z M262.8,463.6
  c-2.8,0-5.1,2.3-5.1,5.1s2.3,5.1,5.1,5.1s5.1-2.3,5.1-5.1S265.7,463.6,262.8,463.6z M333.7,488.7c-2.8,0-5.1,2.3-5.1,5.1
  s2.3,5.1,5.1,5.1s5.1-2.3,5.1-5.1S336.5,488.7,333.7,488.7z M314.9,460.5c-2.8,0-5.1,2.3-5.1,5.1s2.3,5.1,5.1,5.1s5.1-2.3,5.1-5.1
  S317.7,460.5,314.9,460.5z M357.4,458.4c-2.8,0-5.1,2.3-5.1,5.1s2.3,5.1,5.1,5.1s5.1-2.3,5.1-5.1S360.2,458.4,357.4,458.4z
   M150,400.1c-2.8,0-5.1,2.3-5.1,5.1s2.3,5.1,5.1,5.1s5.1-2.3,5.1-5.1S152.8,400.1,150,400.1z M114.3,440.3c-2.8,0-5.1,2.3-5.1,5.1
  s2.3,5.1,5.1,5.1s5.1-2.3,5.1-5.1S117.1,440.3,114.3,440.3z M211.5,376.5c-2.8,0-5.1,2.3-5.1,5.1s2.3,5.1,5.1,5.1s5.1-2.3,5.1-5.1
  S214.3,376.5,211.5,376.5z M13.4,459.1c0,2.8-2.3,5.1-5.1,5.1s-5.1-2.3-5.1-5.1s2.3-5.1,5.1-5.1S13.4,456.3,13.4,459.1z"/>
<path id="banner-rocket" class="st0" d="M299.6,488.7l-118,0.3l-118-0.3c-5.7,0-7.9-7.4-3.2-10.5c8.4-5.7,15.7-11.1,21.9-15.9
  c13.8-10.7,24.9-24.4,32.7-40c20.4-41,38-64.4,66.6-64.4l0,0c31,0.8,46.2,23.4,66.6,64.4c7.8,15.6,18.9,29.4,32.7,40
  c6.2,4.8,13.5,10.2,21.9,15.9C307.5,481.3,305.3,488.7,299.6,488.7z M365.3,305.1C355.2,115.9,256.3,35.4,207.4,6.9
  c-7.4-4.3-15.6-6.4-23.8-6.4c-8.2,0-16.5,2.1-23.8,6.4C110.9,35.4,11.9,115.9,1.8,305.1c-2.2,40.2-1.5,73.1,1.2,100
  c5.2,53,76.5,47.6,93.3,6.8c7.4-17.9,8.1-21.3,21.2-40.9c1.4-2.1,33.1-48.3,66.1-45.8c32.4,2.4,61.5,23.8,87.3,86.7
  c16.8,40.8,88.1,46.2,93.3-6.8C366.8,378.2,367.5,345.3,365.3,305.1z M183.6,233.9c-28.1,0-50.9-22.8-50.9-50.9s22.8-50.9,50.9-50.9
  c28.1,0,50.9,22.8,50.9,50.9S211.7,233.9,183.6,233.9z M31,483.6c-2.8,0-5.1,2.3-5.1,5.1s2.3,5.1,5.1,5.1c2.8,0,5.1-2.3,5.1-5.1
  S33.8,483.6,31,483.6z M61.6,493.8c-2.8,0-5.1,2.3-5.1,5.1s2.3,5.1,5.1,5.1c2.8,0,5.1-2.3,5.1-5.1S64.4,493.8,61.6,493.8z
   M64.2,445.5c-2.8,0-5.1,2.3-5.1,5.1s2.3,5.1,5.1,5.1c2.8,0,5.1-2.3,5.1-5.1S67,445.5,64.2,445.5z M262.8,463.6
  c-2.8,0-5.1,2.3-5.1,5.1s2.3,5.1,5.1,5.1s5.1-2.3,5.1-5.1S265.7,463.6,262.8,463.6z M333.7,488.7c-2.8,0-5.1,2.3-5.1,5.1
  s2.3,5.1,5.1,5.1s5.1-2.3,5.1-5.1S336.5,488.7,333.7,488.7z M314.9,460.5c-2.8,0-5.1,2.3-5.1,5.1s2.3,5.1,5.1,5.1s5.1-2.3,5.1-5.1
  S317.7,460.5,314.9,460.5z M357.4,458.4c-2.8,0-5.1,2.3-5.1,5.1s2.3,5.1,5.1,5.1s5.1-2.3,5.1-5.1S360.2,458.4,357.4,458.4z
   M150,400.1c-2.8,0-5.1,2.3-5.1,5.1s2.3,5.1,5.1,5.1s5.1-2.3,5.1-5.1S152.8,400.1,150,400.1z M114.3,440.3c-2.8,0-5.1,2.3-5.1,5.1
  s2.3,5.1,5.1,5.1s5.1-2.3,5.1-5.1S117.1,440.3,114.3,440.3z M211.5,376.5c-2.8,0-5.1,2.3-5.1,5.1s2.3,5.1,5.1,5.1s5.1-2.3,5.1-5.1
  S214.3,376.5,211.5,376.5z M13.4,459.1c0,2.8-2.3,5.1-5.1,5.1s-5.1-2.3-5.1-5.1s2.3-5.1,5.1-5.1S13.4,456.3,13.4,459.1z"/>
</svg>
