<svg xmlns="http://www.w3.org/2000/svg" viewBox="0 0 107.96 144.229"><defs><style>.cls-1{fill:#fff;}</style></defs><g id="Layer_2" data-name="Layer 2"><g id="Layer_1-2" data-name="Layer 1"><path class="cls-1" d="M89.74,141.031c-2.471-1.685-4.638-3.278-6.465-4.685a34.04,34.04,0,0,1-9.654-11.8C67.6,112.454,63.129,105.8,53.98,105.551h0c-8.439,0-13.614,6.9-19.64,18.992a34.032,34.032,0,0,1-9.655,11.8c-1.826,1.407-3.993,3-6.465,4.685a1.7,1.7,0,0,0,.953,3.11l34.807.088h0l34.807-.088A1.7,1.7,0,0,0,89.74,141.031Z"/><path class="cls-1" d="M107.581,89.826C104.59,34.038,75.418,10.289,61.007,1.9a13.963,13.963,0,0,0-14.054,0C32.542,10.289,3.37,34.038.379,89.826a197.044,197.044,0,0,0,.341,29.5c1.536,15.634,22.569,14.048,27.517,2,5-12.16,13.467-25.1,25.743-25.575,12.277.473,20.746,13.415,25.743,25.575,4.949,12.044,25.981,13.63,27.517-2A196.909,196.909,0,0,0,107.581,89.826Zm-53.6-21A15.014,15.014,0,1,1,68.994,53.809,15.014,15.014,0,0,1,53.98,68.823Z"/></g></g></svg>