<svg xmlns="http://www.w3.org/2000/svg" viewBox="0 0 111.639 144.23"><defs><style>.cls-1{fill:#fff;}</style></defs><g id="Layer_2" data-name="Layer 2"><g id="Layer_1-2" data-name="Layer 1"><path class="cls-1" d="M91.58,141.032c-2.471-1.684-4.639-3.277-6.465-4.685a38.861,38.861,0,0,1-9.655-11.8C68.525,112.44,63.7,103.827,55.82,103.827s-12.706,8.613-19.641,20.718a38.843,38.843,0,0,1-9.654,11.8c-1.827,1.408-3.994,3-6.466,4.685a1.7,1.7,0,0,0,.954,3.111l34.807.087,34.807-.087A1.7,1.7,0,0,0,91.58,141.032Z"/><path class="cls-1" d="M111.247,92.9C108.154,35.2,77.983,10.64,63.08,1.961a14.419,14.419,0,0,0-14.52,0C33.656,10.64,3.485,35.2.392,92.9a203.693,203.693,0,0,0,.353,30.51c1.588,16.169,20.834,12.8,27.459,1.074,6.88-12.178,14.926-27.445,27.616-27.451s20.735,15.273,27.616,27.451c6.624,11.723,25.87,15.1,27.458-1.074A203.693,203.693,0,0,0,111.247,92.9ZM55.82,68.823A15.014,15.014,0,1,1,70.826,53.809,15.014,15.014,0,0,1,55.82,68.823Z"/></g></g></svg>